<svg width="212" height="45" viewBox="0 0 212 45" fill="none" xmlns="http://www.w3.org/2000/svg">
<path d="M61.6489 31.0347C60.3709 31.0347 59.3719 30.8547 58.6519 30.4947C57.9319 30.1347 57.4279 29.5947 57.1399 28.8747C56.8519 28.1547 56.7079 27.2637 56.7079 26.2017V20.1807C56.7079 18.4527 57.0949 17.1837 57.8689 16.3737C58.6429 15.5457 59.9029 15.1317 61.6489 15.1317H69.7759C71.0179 15.1317 71.9629 15.2037 72.6109 15.3477C73.2769 15.4737 73.6099 15.6087 73.6099 15.7527L73.0699 17.9937C72.7639 17.9397 71.8549 17.8857 70.3429 17.8317C68.8489 17.7597 66.6709 17.7237 63.8089 17.7237H62.4319C60.9919 17.7237 60.2719 18.3627 60.2719 19.6407V26.5257C60.2719 27.1377 60.4249 27.6147 60.7309 27.9567C61.0549 28.2807 61.6219 28.4427 62.4319 28.4427H63.5389C66.5269 28.4427 68.8399 28.4157 70.4779 28.3617C72.1339 28.2897 73.1599 28.2177 73.5559 28.1457L74.6629 29.9277C74.6629 30.0177 74.5099 30.1527 74.2039 30.3327C73.9159 30.5127 73.3759 30.6747 72.5839 30.8187C71.7919 30.9627 70.6489 31.0347 69.1549 31.0347H61.6489ZM77.1997 31.0347L85.1107 15.1587H90.4297L98.3137 31.0347H94.1557L92.5627 27.6057H82.8967L81.1417 31.0347H77.1997ZM83.8687 24.9597H91.5637L87.8647 17.5887H87.5947L83.8687 24.9597ZM119.733 31.3047C119.013 31.3047 118.302 31.1967 117.6 30.9807C116.916 30.7467 116.133 30.1887 115.251 29.3067L113.307 27.3627C112.515 26.5527 111.642 25.9587 110.688 25.5807C109.752 25.2027 108.573 25.0137 107.151 25.0137H106.314V31.0347H102.75V17.3187L102.48 15.1317H114.441C115.593 15.1317 116.493 15.2847 117.141 15.5907C117.807 15.8967 118.293 16.3017 118.599 16.8057C118.923 17.2917 119.13 17.8137 119.22 18.3717C119.31 18.9297 119.355 19.4607 119.355 19.9647V20.4777C119.355 20.8737 119.301 21.3147 119.193 21.8007C119.085 22.2867 118.878 22.7637 118.572 23.2317C118.266 23.6997 117.825 24.0957 117.249 24.4197C116.691 24.7437 115.953 24.9327 115.035 24.9867C115.269 25.1127 115.566 25.3107 115.926 25.5807C116.286 25.8327 116.655 26.1117 117.033 26.4177C117.429 26.7237 117.789 27.0027 118.113 27.2547C118.437 27.5067 118.689 27.6867 118.869 27.7947C119.517 28.1727 120.093 28.4337 120.597 28.5777C121.101 28.7217 121.515 28.8027 121.839 28.8207C122.163 28.8387 122.352 28.8477 122.406 28.8477L121.866 31.0347C121.704 31.0887 121.434 31.1427 121.056 31.1967C120.678 31.2687 120.237 31.3047 119.733 31.3047ZM110.364 22.5567C111.048 22.5567 111.66 22.5477 112.2 22.5297C112.74 22.4937 113.226 22.4577 113.658 22.4217C114.45 22.3317 114.999 22.1157 115.305 21.7737C115.629 21.4137 115.791 20.9547 115.791 20.3967V19.7757C115.791 19.1997 115.638 18.7137 115.332 18.3177C115.026 17.9217 114.477 17.7237 113.685 17.7237H106.314V22.4217C107.106 22.4757 107.835 22.5117 108.501 22.5297C109.167 22.5477 109.788 22.5567 110.364 22.5567ZM127.109 31.0347V17.3187L126.839 15.1317H138.8C139.952 15.1317 140.852 15.2847 141.5 15.5907C142.166 15.8967 142.652 16.3017 142.958 16.8057C143.282 17.2917 143.489 17.8137 143.579 18.3717C143.669 18.9297 143.714 19.4607 143.714 19.9647V21.5577C143.714 21.9717 143.651 22.4397 143.525 22.9617C143.399 23.4657 143.165 23.9607 142.823 24.4467C142.481 24.9147 141.986 25.3107 141.338 25.6347C140.69 25.9407 139.844 26.0937 138.8 26.0937H136.046C134.912 26.0937 133.85 26.0667 132.86 26.0127C131.888 25.9587 131.159 25.9137 130.673 25.8777V31.0347H127.109ZM130.673 23.5017H138.017C138.827 23.5017 139.385 23.3037 139.691 22.9077C139.997 22.5117 140.15 22.0347 140.15 21.4767V19.7757C140.15 19.1997 139.997 18.7137 139.691 18.3177C139.385 17.9217 138.836 17.7237 138.044 17.7237H130.673V23.5017ZM149.485 31.0347L149.755 28.8747V15.1587H153.319V28.4427H164.497L165.577 30.7377C165.577 30.8097 165.334 30.8817 164.848 30.9537C164.362 31.0077 163.525 31.0347 162.337 31.0347H149.485ZM173.99 31.3047C172.352 31.3047 171.209 30.8637 170.561 29.9817C169.913 29.0997 169.589 27.9297 169.589 26.4717V15.1587H173.153V26.5797C173.153 27.4257 173.36 27.9927 173.774 28.2807C174.188 28.5687 174.701 28.7127 175.313 28.7127H181.037C181.613 28.7127 182.117 28.5687 182.549 28.2807C182.981 27.9747 183.197 27.4077 183.197 26.5797V15.1587H186.761V26.4717C186.761 27.4437 186.626 28.2897 186.356 29.0097C186.086 29.7297 185.636 30.2967 185.006 30.7107C184.376 31.1067 183.503 31.3047 182.387 31.3047H173.99ZM195.69 31.0347C194.466 31.0347 193.566 30.9807 192.99 30.8727C192.414 30.7647 192.126 30.6387 192.126 30.4947L193.206 28.1457C193.62 28.2177 194.646 28.2897 196.284 28.3617C197.94 28.4157 200.208 28.4427 203.088 28.4427H203.601C204.375 28.4427 204.924 28.3077 205.248 28.0377C205.572 27.7497 205.734 27.2727 205.734 26.6067V26.0667C205.734 25.4367 205.599 24.9867 205.329 24.7167C205.077 24.4467 204.501 24.3117 203.601 24.3117H197.337C195.519 24.3117 194.196 23.9787 193.368 23.3127C192.54 22.6287 192.126 21.5217 192.126 19.9917V19.5597C192.126 18.7677 192.27 18.0387 192.558 17.3727C192.864 16.7067 193.377 16.1757 194.097 15.7797C194.817 15.3657 195.807 15.1587 197.067 15.1587H204.411C205.635 15.1587 206.625 15.2217 207.381 15.3477C208.137 15.4737 208.515 15.6087 208.515 15.7527L207.975 18.0207C207.507 17.9667 206.445 17.9127 204.789 17.8587C203.133 17.7867 200.91 17.7507 198.12 17.7507L197.823 17.7237C196.995 17.7237 196.437 17.8947 196.149 18.2367C195.861 18.5607 195.708 18.9747 195.69 19.4787V19.9377C195.69 20.5317 195.852 20.9817 196.176 21.2877C196.518 21.5757 197.076 21.7197 197.85 21.7197H203.844C204.996 21.7197 205.977 21.8367 206.787 22.0707C207.597 22.3047 208.218 22.7367 208.65 23.3667C209.082 23.9787 209.298 24.8877 209.298 26.0937V26.5257C209.298 27.8757 208.947 28.9647 208.245 29.7927C207.561 30.6207 206.364 31.0347 204.654 31.0347H195.69Z" fill="white"/>
<path d="M23.2772 9.75293L17.2217 13.6262L28.2415 20.0089L34.1878 16.2447L23.2772 9.75293Z" fill="#F55118"/>
<path d="M22.9503 35.502L34.618 28.6316L28.6717 24.8674L20.447 29.5893L20.1681 16.4083L16.1311 14.1171L12.8579 16.4083V29.883L20.5395 33.96L22.9503 35.502Z" fill="#F55118"/>
<circle cx="22.8179" cy="22.7847" r="21" stroke="#F55118" stroke-width="2"/>
</svg>
