<svg width="71" height="48" viewBox="0 0 71 48" fill="none" xmlns="http://www.w3.org/2000/svg">
<circle opacity="0.6" cx="18.2145" cy="18.2321" r="17.3161" fill="#E9651B" fill-opacity="0.17"/>
<path d="M31.1889 11.7343C29.9203 12.1452 28.7611 13.0449 28.1924 14.0667C28.0175 14.3777 27.0004 16.3326 25.9396 18.4096C24.8788 20.4866 23.9711 22.2193 23.9383 22.2526C23.8945 22.2859 23.1837 22.1304 22.3526 21.8972C20.9309 21.4973 20.7887 21.4751 20.045 21.575C17.2126 21.9416 14.9926 24.0408 14.4348 26.8731C14.2708 27.7283 14.2817 28.1059 14.6098 34.6702C14.8066 38.702 15.0035 41.6676 15.0691 41.8231C15.2003 42.1118 15.5831 42.3451 15.9331 42.3451C16.1409 42.3451 16.1518 42.4339 16.1518 44.4887C16.1518 46.588 16.1627 46.6435 16.4033 46.8767C16.6549 47.1211 16.6767 47.1211 21.6964 47.1211H26.7489L26.9676 46.8323C27.1535 46.588 27.1973 46.3769 27.1973 45.6328C27.1973 44.6553 27.0551 44.3443 26.5411 44.1777C26.038 44.0111 25.4475 44.5221 25.4475 45.1218C25.4475 45.3329 25.349 45.344 21.6745 45.344H17.9016V43.8445V42.3451H42.2891H66.6766V43.8445V45.344H62.9036C59.2291 45.344 59.1307 45.3329 59.1307 45.1218C59.1307 44.5221 58.5401 44.0111 58.0371 44.1777C57.5231 44.3443 57.3809 44.6553 57.3809 45.6328C57.3809 46.3769 57.4246 46.588 57.6105 46.8323L57.8293 47.1211H62.8927H67.9561L68.1858 46.8656C68.4154 46.6213 68.4263 46.5102 68.4263 44.4776C68.4263 42.4339 68.4373 42.3451 68.6451 42.3451C68.995 42.3451 69.3778 42.1118 69.509 41.8231C69.5746 41.6676 69.7715 38.702 69.9683 34.6702C70.2964 28.1059 70.3074 27.7283 70.1433 26.8731C69.5856 24.0408 67.3655 21.9416 64.5331 21.575C63.7894 21.4751 63.6473 21.4973 62.2256 21.8972C61.3944 22.1304 60.6836 22.2859 60.6398 22.2526C60.607 22.2193 59.6993 20.4866 58.6385 18.4096C57.5777 16.3326 56.5607 14.3777 56.3857 14.0667C55.9373 13.267 55.1062 12.5229 54.1219 12.0453L53.2799 11.6343L42.4531 11.6121C33.912 11.601 31.5389 11.6232 31.1889 11.7343ZM53.422 13.6891C53.7829 13.8779 54.2532 14.2222 54.45 14.4444C54.7781 14.8109 58.6385 22.1637 58.7698 22.6635C58.8026 22.819 58.6057 22.9079 57.6434 23.1745C56.3092 23.541 56.0686 23.7187 56.0686 24.3296C56.0686 24.785 56.2654 25.0404 56.681 25.1737C56.8231 25.2181 58.223 24.8738 60.3446 24.2852C64.2378 23.1967 64.4675 23.1745 65.747 23.7742C67.1031 24.4295 68.1748 25.8401 68.4154 27.3062C68.492 27.7838 68.4482 29.5165 68.2514 33.6817C68.1092 36.8249 67.9561 39.6683 67.9233 39.9793L67.8686 40.568H42.2891H16.7095L16.6549 39.9793C16.622 39.6683 16.4689 36.8249 16.3268 33.6817C16.1299 29.5165 16.0862 27.7838 16.1627 27.3062C16.4033 25.8401 17.4751 24.4295 18.8311 23.7742C20.1107 23.1745 20.3403 23.1967 24.2336 24.2852C26.3552 24.8738 27.755 25.2181 27.8972 25.1737C28.3127 25.0404 28.5096 24.785 28.5096 24.3296C28.5096 23.7187 28.269 23.541 26.9348 23.1745C25.9724 22.9079 25.7756 22.819 25.8084 22.6635C25.9396 22.1637 29.8 14.8109 30.1281 14.4444C30.325 14.2222 30.7952 13.8779 31.1561 13.6891L31.8232 13.3559H42.2891H52.7549L53.422 13.6891Z" fill="#F55118"/>
<path d="M30.5988 23.7519C30.216 24.2517 30.3363 24.8181 30.8831 25.1069C31.2222 25.2957 53.3568 25.2957 53.6959 25.1069C54.2427 24.8181 54.363 24.2517 53.9802 23.7519L53.7615 23.4631H42.2895H30.8175L30.5988 23.7519Z" fill="#F55118"/>
<path d="M18.383 27.6171C17.683 27.9392 17.7268 28.9611 18.4486 29.2276C18.6673 29.2943 19.5859 29.3498 20.7451 29.3498C22.8996 29.3498 23.2933 29.4276 24.0916 30.0496C24.5618 30.4161 25.1524 31.2047 25.2836 31.649L25.3492 31.9044H22.1887C18.383 31.9044 18.1205 31.96 18.1205 32.8485C18.1205 33.2817 18.2955 33.5371 18.6782 33.6704C19.236 33.8593 26.2241 33.837 26.6944 33.6371C27.1646 33.4372 27.2959 33.0484 27.1865 32.1821C26.9459 30.1717 25.5898 28.4946 23.6323 27.7837C23.0745 27.5727 22.6918 27.5394 20.8545 27.495C19.1813 27.4616 18.6454 27.495 18.383 27.6171Z" fill="#F55118"/>
<path d="M61.7552 27.5728C59.8961 27.9171 58.2666 29.2833 57.6323 31.0604C57.4026 31.7157 57.2823 32.7931 57.4136 33.1707C57.6104 33.7594 57.8729 33.7927 61.8974 33.7927C64.2815 33.7927 65.6703 33.7483 65.9 33.6705C66.2828 33.5373 66.4577 33.2818 66.4577 32.8486C66.4577 31.9601 66.1953 31.9045 62.3895 31.9045H59.229L59.2946 31.6491C59.4258 31.2048 60.0164 30.4162 60.4866 30.0497C61.285 29.4277 61.6677 29.3499 63.8549 29.3499C66.064 29.3499 66.4577 29.2611 66.6436 28.7168C66.8077 28.2503 66.578 27.7505 66.1297 27.5839C65.725 27.4395 62.5317 27.4395 61.7552 27.5728Z" fill="#F55118"/>
<path d="M36.7664 28.5169C36.4055 28.8723 36.4055 29.3499 36.7773 29.7276L37.0726 30.0164H42.2891H47.5056L47.8009 29.7276C48.1727 29.3499 48.1727 28.8723 47.8118 28.5169L47.5494 28.2392H42.2891H37.0289L36.7664 28.5169Z" fill="#F55118"/>
<path d="M31.8447 34.8479C31.5822 35.1034 31.5713 35.17 31.5713 36.6028C31.5713 37.9467 31.5932 38.1245 31.8009 38.391C32.0962 38.7798 32.7415 38.7909 33.0805 38.4243C33.2883 38.2022 33.3211 38.0356 33.3211 37.2581V36.3473H42.2887H51.2563V37.2692C51.2563 38.0911 51.2891 38.2244 51.5078 38.4355C51.8796 38.7909 52.4811 38.7687 52.7764 38.391C52.9842 38.1245 53.006 37.9467 53.006 36.6028C53.006 35.17 52.9951 35.1034 52.7326 34.8479L52.4702 34.5702H42.2887H32.1072L31.8447 34.8479Z" fill="#F55118"/>
<path d="M17.1908 18.1873C16.8081 18.565 16.819 19.1425 17.2018 19.4535C17.4752 19.6646 17.6392 19.6868 19.3453 19.6868C21.1606 19.6868 21.1935 19.6868 21.4559 19.4091C21.8168 19.0537 21.8168 18.5761 21.445 18.1984L21.1497 17.9097H19.3015C17.4861 17.9097 17.4533 17.9097 17.1908 18.1873Z" fill="#F55118"/>
<path d="M63.1338 18.1984C62.7619 18.5761 62.7619 19.0537 63.1228 19.4091C63.3853 19.6868 63.4181 19.6868 65.2335 19.6868C66.9395 19.6868 67.1036 19.6646 67.377 19.4535C67.7597 19.1425 67.7707 18.565 67.3879 18.1873C67.1254 17.9097 67.0926 17.9097 65.2772 17.9097H63.429L63.1338 18.1984Z" fill="#F55118"/>
</svg>
