<svg width="72" height="65" viewBox="0 0 72 65" fill="none" xmlns="http://www.w3.org/2000/svg">
<circle opacity="0.6" cx="17.9939" cy="22.1695" r="17.9666" fill="#E9651B" fill-opacity="0.17"/>
<g clip-path="url(#clip0_275_220)">
<g clip-path="url(#clip1_275_220)">
<path d="M21.6538 17.5849C21.4127 17.6704 20.9425 18.1225 20.7737 18.4158C20.6893 18.5624 20.6049 19.4545 20.5688 20.5543L20.5085 22.4483L18.1576 22.5216C16.8676 22.5583 15.7946 22.595 15.7705 22.6072C15.7463 22.6194 15.6619 22.8027 15.5776 23.0227C15.3485 23.5603 15.4932 24.0002 15.9995 24.2569C16.3733 24.4524 16.8796 24.4646 22.4736 24.4401L28.5499 24.4035L28.8393 24.0613C29.1889 23.6459 29.213 23.2548 28.8754 22.8271L28.6343 22.5094H25.56H22.4978V20.982V19.4545H38.4721H54.4464L54.4223 32.1875L54.3861 44.9327L47.3574 44.9693C41.7996 44.9938 40.3287 44.9693 40.2805 44.8471C39.7259 43.2097 39.2196 42.4276 38.231 41.67C36.6637 40.4602 34.4212 40.2769 32.6128 41.2179C31.5157 41.78 30.5151 43.0142 30.069 44.3217L29.864 44.9327L26.1869 44.9693L22.4978 44.9938V42.1832V39.3727H24.1253C25.5962 39.3727 25.777 39.3482 25.994 39.1283C26.3557 38.7617 26.3557 38.1141 25.982 37.723C25.7529 37.4786 25.5841 37.4786 19.2306 37.4786H12.7082L12.4189 37.8208C12.0692 38.2363 12.0451 38.6273 12.3827 39.055L12.6238 39.3727H16.6023H20.5688V42.8431C20.5688 46.0691 20.5808 46.3257 20.7978 46.5946L21.0269 46.8878L25.4636 46.9489L29.8881 47.01L30.0328 47.4988C30.5874 49.4051 32.2391 50.8715 34.2525 51.2381C36.6757 51.6902 39.3883 50.0161 40.0755 47.6577L40.2805 46.9489H49.0332H57.7739L57.9306 47.5599C58.2682 48.8797 59.3894 50.175 60.7518 50.7982C63.597 52.1301 66.9004 50.6882 67.9372 47.6821L68.1663 47.01L69.2995 46.9489C70.5534 46.8756 70.9271 46.7168 71.337 46.0569C71.5661 45.6903 71.5781 45.4826 71.542 42.061C71.5058 38.5173 71.5058 38.444 71.2044 37.723C71.0356 37.3198 69.6853 34.7903 68.2145 32.1019C65.3934 26.9574 65.0317 26.432 64.1395 26.1876C63.8502 26.102 62.2588 26.0532 60.0284 26.0532H56.3874L56.3513 22.3506C56.3151 18.7091 56.3151 18.6602 56.0378 18.257C55.4591 17.4382 56.7491 17.4993 38.448 17.5115C29.3095 17.5115 21.7503 17.5482 21.6538 17.5849ZM63.8019 28.2405C64.1998 28.7048 69.2875 38.1141 69.4563 38.6884C69.5889 39.1527 69.6371 39.9959 69.6371 42.1466V45.006L68.9017 44.9693L68.1783 44.9327L67.9734 44.3217C67.0571 41.5845 64.3324 40.0692 61.6198 40.778C59.8717 41.2423 58.3888 42.6965 57.8824 44.4439C57.7377 44.9327 57.7377 44.9327 57.0505 44.9693L56.3754 45.006V36.501V28.0083H59.9922C63.38 28.0083 63.6211 28.0205 63.8019 28.2405ZM36.1091 42.7453C36.8566 42.9653 37.7005 43.6985 38.0742 44.4317C38.4239 45.116 38.4962 46.2646 38.243 47.0345C37.9778 47.841 37.3268 48.5864 36.5552 48.9896C35.8077 49.3807 34.5418 49.4295 33.7943 49.0996C33.0951 48.7941 32.3235 47.9998 32.0221 47.2911C31.6966 46.509 31.7207 45.2015 32.0824 44.4439C32.5887 43.4052 33.8546 42.5743 34.9879 42.562C35.2531 42.5498 35.7595 42.6354 36.1091 42.7453ZM64.1275 42.7942C66.4181 43.6618 67.0089 46.7901 65.2005 48.4397C64.5012 49.0752 63.9346 49.3073 63.0062 49.3073C61.1376 49.3196 59.7752 48.0365 59.6546 46.1669C59.5944 45.0793 59.8837 44.2972 60.6432 43.5396C61.5836 42.5987 62.8857 42.3176 64.1275 42.7942Z" fill="#F55118"/>
<path d="M21.1119 26.5664C20.5935 26.8719 20.5815 26.9697 20.5694 30.0491V33.0185H19.1227C17.7362 33.0185 17.6519 33.0307 17.3746 33.324C16.9767 33.715 16.9767 34.2771 17.3746 34.6681L17.6639 34.9736H26.5131C35.2899 34.9736 35.3743 34.9736 35.6878 34.717C36.1338 34.3626 36.1338 33.6295 35.6878 33.2751C35.3743 33.0185 35.2537 33.0185 28.9364 33.0185H22.4984V30.0735V27.1286L22.1488 26.7742C21.775 26.3954 21.4977 26.3465 21.1119 26.5664Z" fill="#F55118"/>
<path d="M10.2249 28.0816C9.81496 28.3749 9.85113 29.2425 10.2851 29.5968C10.5986 29.8412 10.6951 29.8535 14.2757 29.8168L17.9408 29.7801L18.1698 29.4869C18.4833 29.0958 18.4712 28.4849 18.1216 28.1549C17.8443 27.8861 17.772 27.8861 14.1672 27.8861C11.0447 27.8861 10.4539 27.9105 10.2249 28.0816Z" fill="#F55118"/>
</g>
</g>
<defs>
<clipPath id="clip0_275_220">
<rect width="61.7272" height="63.5427" fill="white" transform="translate(10.002 0.78125)"/>
</clipPath>
<clipPath id="clip1_275_220">
<rect width="61.7272" height="62.5652" fill="white" transform="translate(9.95996 2.71338)"/>
</clipPath>
</defs>
</svg>
