<svg width="138" height="138" viewBox="0 0 138 138" fill="none" xmlns="http://www.w3.org/2000/svg">
<path d="M60.352 128.25C60.7734 128.313 61.1574 128.454 61.5039 128.675C61.8499 128.899 62.1423 129.178 62.3809 129.514C62.6162 129.852 62.785 130.228 62.8876 130.644C62.9871 131.059 63.0041 131.489 62.9384 131.934C62.8728 132.379 62.7325 132.786 62.5174 133.155C62.2994 133.523 62.0292 133.833 61.7069 134.086C61.3812 134.341 61.0206 134.524 60.6251 134.636C60.2292 134.75 59.8205 134.777 59.3991 134.715C58.8945 134.64 58.4473 134.454 58.0575 134.157C57.6676 133.86 57.3619 133.497 57.1402 133.067L58.0288 132.748C58.1858 133.019 58.3961 133.249 58.6595 133.436C58.923 133.624 59.215 133.741 59.5356 133.789C59.8324 133.832 60.1188 133.812 60.395 133.729C60.6711 133.645 60.9227 133.512 61.1496 133.331C61.3766 133.149 61.5655 132.926 61.7165 132.664C61.8674 132.401 61.9661 132.112 62.0124 131.797C62.0593 131.48 62.0483 131.174 61.9796 130.878C61.9105 130.586 61.7938 130.319 61.6294 130.076C61.4616 129.836 61.2576 129.636 61.0173 129.477C60.7766 129.32 60.5093 129.22 60.2155 129.176C59.889 129.128 59.5741 129.156 59.2707 129.26C58.9639 129.366 58.6976 129.527 58.4718 129.743L57.7144 129.172C58.0507 128.824 58.4484 128.564 58.9074 128.392C59.3659 128.223 59.8474 128.176 60.352 128.25Z" fill="white"/>
<path d="M52.5807 126.734L50.5959 132.714L48.3964 131.984C48.0719 131.876 47.8065 131.699 47.6003 131.454C47.3941 131.208 47.2605 130.925 47.1994 130.605C47.1345 130.286 47.1568 129.962 47.2665 129.631C47.3591 129.352 47.4964 129.115 47.6783 128.919C47.8573 128.723 48.0678 128.574 48.3095 128.474C48.5485 128.374 48.7994 128.327 49.0622 128.335L48.4465 125.362L49.4758 125.704L50.0757 128.582L50.8914 128.853L51.6924 126.44L52.5807 126.734ZM50.5965 129.741L49.3793 129.337C49.2085 129.28 49.0391 129.271 48.8713 129.311C48.7005 129.349 48.5503 129.425 48.4204 129.54C48.2906 129.655 48.1959 129.802 48.1364 129.982C48.0768 130.161 48.0647 130.336 48.1 130.505C48.1344 130.678 48.2091 130.829 48.324 130.959C48.4352 131.091 48.5762 131.185 48.747 131.242L49.9642 131.646L50.5965 129.741Z" fill="white"/>
<path d="M43.2357 123.165L40.3225 128.751L36.8551 126.943L37.288 126.113L39.9254 127.489L40.6287 126.14L38.506 125.033L38.9388 124.203L41.0615 125.31L41.9729 123.562L39.3355 122.187L39.7684 121.357L43.2357 123.165Z" fill="white"/>
<path d="M29.8139 122.371L28.942 121.711L30.9177 115.305L31.7071 115.903L31.3328 117.121L33.5825 118.824L34.6494 118.13L35.4424 118.73L29.8139 122.371ZM32.7414 119.361L31.0442 118.076L30.1293 121.052L32.7414 119.361Z" fill="white"/>
<path d="M19.0986 112.501L19.7843 111.864L21.1505 113.334L25.0798 109.682L25.717 110.368L21.7877 114.019L23.1508 115.486L22.4652 116.123L19.0986 112.501Z" fill="white"/>
<path d="M20.4103 103.932L15.2445 107.539L14.7087 106.771L19.8745 103.165L20.4103 103.932Z" fill="white"/>
<path d="M15.9609 96.6441L11.3461 101.504L10.9038 100.618L14.7052 96.6174L9.21891 97.2447L8.77659 96.359L15.4342 95.5893L15.9609 96.6441Z" fill="white"/>
<path d="M12.4902 88.5755L6.46413 90.4132L5.32346 86.6728L6.21875 86.3997L7.0864 89.2449L8.54125 88.8012L7.84294 86.5113L8.73823 86.2383L9.43655 88.5282L11.3218 87.9533L10.4542 85.1081L11.3495 84.8351L12.4902 88.5755Z" fill="white"/>
<path d="M9.44202 70.8504C9.45042 71.1953 9.4045 71.528 9.30427 71.8485C9.20404 72.1691 9.05634 72.4503 8.86117 72.6921C8.663 72.934 8.42569 73.1093 8.14926 73.2181L7.7995 72.3488C7.94222 72.2943 8.06881 72.1937 8.17927 72.047C8.28666 71.8973 8.3694 71.7213 8.42749 71.5188C8.4855 71.3133 8.51178 71.0981 8.5063 70.8732C8.50046 70.6332 8.456 70.4093 8.37291 70.2012C8.28975 69.9902 8.17762 69.8219 8.03652 69.6963C7.89535 69.5677 7.73179 69.5056 7.54585 69.5101C7.3539 69.5148 7.19813 69.5876 7.07852 69.7286C6.95885 69.8665 6.86561 70.0429 6.79881 70.2575C6.73195 70.4692 6.68329 70.6895 6.65285 70.9183C6.5916 71.3609 6.49627 71.7594 6.36685 72.1136C6.23736 72.4649 6.05064 72.7455 5.80667 72.9555C5.56264 73.1625 5.24118 73.2708 4.8423 73.2806C4.46741 73.2897 4.13791 73.1912 3.85381 72.985C3.56964 72.7759 3.34681 72.4977 3.18531 72.1505C3.02074 71.8004 2.93346 71.42 2.92345 71.0091C2.9152 70.6702 2.96123 70.342 3.06153 70.0244C3.15876 69.704 3.30643 69.4213 3.50453 69.1764C3.69956 68.9286 3.93975 68.7487 4.22511 68.6367L4.56609 69.5152C4.42037 69.5697 4.29528 69.6703 4.19082 69.8169C4.08335 69.9635 4.00061 70.1396 3.9426 70.3451C3.88451 70.5475 3.8582 70.7613 3.86368 70.9862C3.86652 71.2262 3.91098 71.4502 3.99707 71.6581C4.08008 71.8632 4.19217 72.03 4.33335 72.1586C4.47452 72.2872 4.63658 72.3493 4.81952 72.3448C5.04445 72.3394 5.21391 72.2737 5.32788 72.1479C5.44185 72.0221 5.52481 71.855 5.57676 71.6467C5.62563 71.4354 5.66942 71.2003 5.70813 70.9413C5.76403 70.5258 5.86419 70.1408 6.00861 69.7861C6.15295 69.4285 6.34999 69.1401 6.59973 68.921C6.8464 68.6989 7.15418 68.5834 7.52307 68.5744C7.89496 68.5654 8.22449 68.6654 8.51166 68.8745C8.79576 69.0806 9.0201 69.3587 9.18467 69.7088C9.34616 70.056 9.43195 70.4365 9.44202 70.8504Z" fill="white"/>
<path d="M4.00588 57.4903L4.93235 57.6235L4.64665 59.6101L9.95602 60.3737L9.82278 61.3002L4.5134 60.5366L4.22834 62.5187L3.30187 62.3854L4.00588 57.4903Z" fill="white"/>
<path d="M11.4066 53.2802L5.40693 51.3583L6.11393 49.1512C6.21826 48.8255 6.39207 48.5583 6.63535 48.3496C6.87862 48.1409 7.16022 48.0043 7.48014 47.9398C7.79812 47.8715 8.12281 47.8905 8.45422 47.9967C8.73421 48.0863 8.97298 48.2211 9.17053 48.401C9.369 48.5779 9.51946 48.7868 9.6219 49.0275C9.72526 49.2654 9.77421 49.5158 9.76876 49.7786L12.7355 49.1319L12.4046 50.1647L9.53306 50.7947L9.27085 51.6132L11.6921 52.3888L11.4066 53.2802ZM8.37947 51.3276L8.77073 50.1063C8.82564 49.9349 8.83266 49.7654 8.7918 49.598C8.75185 49.4277 8.67372 49.2782 8.55741 49.1496C8.44111 49.021 8.29296 48.9279 8.11297 48.8702C7.93298 48.8125 7.75828 48.8023 7.58889 48.8393C7.41665 48.8755 7.26622 48.9518 7.1376 49.0681C7.00705 49.1806 6.91431 49.3226 6.8594 49.494L6.46815 50.7154L8.37947 51.3276Z" fill="white"/>
<path d="M10.2484 39.1008L10.7574 38.133L17.3994 39.0381L16.9386 39.9144L15.676 39.7435L14.3627 42.2408L15.2211 43.1803L14.7582 44.0605L10.2484 39.1008ZM13.6956 41.4984L14.6863 39.6145L11.6011 39.197L13.6956 41.4984Z" fill="white"/>
<path d="M18.2399 26.9203L18.9804 27.4929L17.7525 29.0805L21.9956 32.362L21.423 33.1024L17.1799 29.8209L15.9548 31.405L15.2144 30.8323L18.2399 26.9203Z" fill="white"/>
<path d="M26.7765 26.9126L22.4716 22.3128L25.3268 19.6407L25.9664 20.3241L23.7946 22.3566L24.8339 23.4671L26.5819 21.8313L27.2214 22.5147L25.4735 24.1505L26.8203 25.5896L28.9921 23.5571L29.6317 24.2405L26.7765 26.9126Z" fill="white"/>
<path d="M36.1821 19.417C35.8152 19.6564 35.4276 19.809 35.0193 19.8749C34.6118 19.9366 34.208 19.9189 33.8079 19.8218C33.4086 19.7205 33.0342 19.5474 32.6847 19.3027C32.3376 19.0563 32.0419 18.7459 31.7977 18.3716C31.5403 17.9771 31.3737 17.5682 31.298 17.1447C31.2223 16.7213 31.2268 16.3082 31.3115 15.9055C31.3945 15.5002 31.5475 15.1281 31.7706 14.7892C31.9961 14.4486 32.2809 14.166 32.6252 13.9414C33.0146 13.6873 33.4479 13.5334 33.9253 13.4799C34.4026 13.4263 34.8924 13.4936 35.3948 13.6816L34.9422 14.5196C34.6138 14.4115 34.2913 14.3784 33.9747 14.4202C33.6606 14.4604 33.3779 14.5625 33.1267 14.7264C32.8829 14.8854 32.6846 15.0865 32.5316 15.3296C32.3769 15.5702 32.2737 15.8347 32.2217 16.1229C32.1682 16.4086 32.1702 16.7028 32.228 17.0054C32.2866 17.3038 32.4069 17.5925 32.5889 17.8714C32.7643 18.1402 32.9756 18.3624 33.2226 18.5379C33.4722 18.7118 33.7381 18.8338 34.0203 18.904C34.3034 18.97 34.5871 18.982 34.8712 18.9398C35.1579 18.896 35.4268 18.7922 35.6781 18.6282C35.864 18.5069 36.0227 18.3604 36.1542 18.1886C36.2857 18.0168 36.3883 17.8281 36.4618 17.6225C36.5363 17.4127 36.578 17.1939 36.5869 16.9659C36.5958 16.738 36.5706 16.5073 36.5113 16.2737L35.392 17.0041L34.9396 16.3107L36.9784 14.9803C37.2293 15.3539 37.3952 15.7507 37.4759 16.1709C37.5591 16.5894 37.5642 17.0035 37.4911 17.413C37.4189 17.8183 37.2725 18.195 37.0519 18.5432C36.8313 18.8913 36.5413 19.1826 36.1821 19.417Z" fill="white"/>
<path d="M43.9081 14.9634L41.311 9.22364L42.1638 8.83779L44.7609 14.5776L43.9081 14.9634Z" fill="white"/>
<path d="M49.9369 12.52L48.12 6.48764L51.8643 5.35985L52.1342 6.25608L49.2861 7.11393L49.7248 8.5703L52.0171 7.87987L52.287 8.7761L49.9947 9.46653L50.5632 11.3538L53.4113 10.4959L53.6812 11.3922L49.9369 12.52Z" fill="white"/>
<path d="M61.0424 10.0618C60.7004 10.1073 60.3646 10.0975 60.0352 10.0324C59.7057 9.96734 59.4102 9.85081 59.1488 9.68285C58.8869 9.5119 58.6871 9.29488 58.5491 9.03178L59.3756 8.59036C59.4452 8.72637 59.5588 8.84138 59.7166 8.93538C59.877 9.02601 60.0609 9.08929 60.2685 9.12521C60.479 9.16074 60.6958 9.16366 60.9188 9.13397C61.1567 9.1023 61.3746 9.03395 61.5725 8.92892C61.7733 8.82349 61.9286 8.69387 62.0383 8.54005C62.1509 8.38584 62.1949 8.21655 62.1704 8.03218C62.1451 7.84186 62.0559 7.69484 61.9029 7.59112C61.7528 7.48701 61.5675 7.41333 61.3468 7.37007C61.1292 7.32641 60.9049 7.30178 60.6742 7.29618C60.2275 7.28301 59.8211 7.23118 59.455 7.14071C59.0918 7.04984 58.7927 6.89445 58.5576 6.67455C58.3255 6.45425 58.1832 6.14634 58.1305 5.75083C58.081 5.37911 58.1434 5.04092 58.3178 4.73625C58.4951 4.43119 58.7476 4.17966 59.0753 3.98168C59.4056 3.78033 59.7745 3.65254 60.1819 3.5983C60.5179 3.55357 60.8492 3.56395 61.1757 3.62943C61.5048 3.69155 61.8017 3.80788 62.0665 3.97843C62.3339 4.1456 62.5387 4.36501 62.6808 4.63663L61.8442 5.07032C61.7742 4.93134 61.6608 4.81782 61.5038 4.72976C61.3464 4.63874 61.1624 4.57546 60.9519 4.53993C60.7443 4.50401 60.529 4.50089 60.306 4.53058C60.0677 4.55928 59.8498 4.62763 59.6524 4.73563C59.4575 4.84026 59.3037 4.96969 59.1911 5.1239C59.0784 5.27811 59.0342 5.44592 59.0583 5.62732C59.088 5.85035 59.1715 6.01174 59.3089 6.11148C59.4463 6.21123 59.6213 6.2757 59.834 6.30488C60.0493 6.3307 60.2878 6.34888 60.5495 6.35945C60.9686 6.37024 61.3622 6.4283 61.7303 6.53365C62.1014 6.63859 62.4093 6.8034 62.6541 7.02806C62.9015 7.24935 63.0495 7.54289 63.0982 7.90866C63.1473 8.27741 63.0834 8.6158 62.9065 8.92384C62.7322 9.2285 62.4799 9.48151 62.1495 9.68286C61.8218 9.88084 61.4527 10.0072 61.0424 10.0618Z" fill="white"/>
<path d="M81.0457 4.14223L80.9093 5.06824L78.9237 4.7757L78.1419 10.0824L77.2159 9.94599L77.9977 4.63927L76.0166 4.3474L76.153 3.42139L81.0457 4.14223Z" fill="white"/>
<path d="M87.9645 12.5673C87.5611 12.4303 87.2089 12.222 86.9078 11.9423C86.6077 11.6598 86.371 11.3307 86.1976 10.955C86.0242 10.5793 85.924 10.1793 85.897 9.7551C85.8709 9.32804 85.9302 8.90146 86.0749 8.47536C86.2196 8.04926 86.4319 7.6762 86.7117 7.35617C86.9924 7.03329 87.3159 6.77565 87.6823 6.58323C88.0486 6.39081 88.4363 6.27535 88.8454 6.23687C89.2555 6.19554 89.6622 6.24337 90.0656 6.38035C90.4718 6.51831 90.825 6.72854 91.125 7.01104C91.4261 7.29071 91.6633 7.6184 91.8367 7.99411C92.0101 8.36982 92.1084 8.77073 92.1316 9.19682C92.1587 9.62104 92.0998 10.0462 91.9551 10.4723C91.8104 10.8984 91.5977 11.2729 91.3169 11.5958C91.04 11.9168 90.7184 12.1735 90.352 12.3659C89.9857 12.5583 89.5975 12.6752 89.1874 12.7165C88.7783 12.755 88.3707 12.7053 87.9645 12.5673ZM88.2654 11.681C88.5495 11.7775 88.8349 11.8095 89.1216 11.7769C89.4083 11.7444 89.6796 11.6591 89.9356 11.5211C90.1954 11.3812 90.4227 11.197 90.6175 10.9685C90.8161 10.7382 90.9666 10.4724 91.0688 10.1713C91.1711 9.8702 91.2136 9.56781 91.1963 9.26413C91.1819 8.96141 91.1138 8.67689 90.9919 8.41057C90.8739 8.14237 90.7106 7.9095 90.5021 7.71194C90.2945 7.51154 90.0487 7.36311 89.7646 7.26664C89.4805 7.17017 89.1952 7.1382 88.9085 7.17074C88.6218 7.20328 88.3485 7.28949 88.0888 7.42939C87.8328 7.5674 87.6055 7.75159 87.4068 7.98195C87.212 8.21044 87.0635 8.47524 86.9612 8.77635C86.858 9.0803 86.8136 9.38363 86.828 9.68635C86.8462 9.98719 86.9144 10.2717 87.0324 10.5399C87.1542 10.8062 87.3189 11.0396 87.5265 11.24C87.7351 11.4375 87.9814 11.5846 88.2654 11.681Z" fill="white"/>
<path d="M104.167 20.8916C103.814 20.6322 103.535 20.3228 103.33 19.9636C103.129 19.6037 103.004 19.2194 102.954 18.8106C102.909 18.4013 102.939 17.99 103.046 17.5767C103.155 17.1652 103.342 16.7794 103.606 16.4193C103.885 16.0398 104.21 15.7402 104.58 15.5206C104.949 15.3011 105.338 15.1602 105.745 15.0981C106.153 15.0336 106.555 15.0462 106.951 15.136C107.349 15.2276 107.714 15.3951 108.045 15.6385C108.42 15.9139 108.716 16.2657 108.934 16.6938C109.151 17.1219 109.26 17.6042 109.261 18.1406L108.317 18.0111C108.303 17.6656 108.221 17.352 108.07 17.0702C107.923 16.7902 107.728 16.5614 107.486 16.3837C107.252 16.2114 106.994 16.0962 106.712 16.0383C106.433 15.978 106.149 15.9742 105.861 16.0267C105.574 16.0769 105.3 16.1821 105.037 16.3425C104.778 16.5022 104.55 16.7162 104.352 16.9845C104.162 17.2431 104.028 17.5189 103.951 17.8119C103.876 18.1066 103.855 18.3985 103.888 18.6873C103.926 18.9756 104.014 19.2454 104.153 19.4966C104.295 19.7497 104.487 19.965 104.728 20.1427C104.907 20.2742 105.1 20.3714 105.307 20.4342C105.514 20.497 105.727 20.5267 105.945 20.5234C106.168 20.5195 106.388 20.4817 106.604 20.41C106.821 20.3383 107.028 20.2337 107.226 20.0962L106.149 19.3046L106.639 18.6375L108.601 20.0793C108.339 20.4455 108.026 20.7401 107.661 20.9632C107.298 21.1881 106.912 21.3383 106.503 21.4136C106.098 21.4883 105.694 21.4835 105.29 21.3992C104.887 21.3149 104.513 21.1457 104.167 20.8916Z" fill="white"/>
<path d="M110.953 26.4271L115.507 22.0743L118.209 24.9012L117.532 25.5479L115.477 23.3976L114.378 24.4485L116.032 26.1792L115.355 26.8259L113.701 25.0952L112.276 26.4571L114.331 28.6074L113.655 29.2541L110.953 26.4271Z" fill="white"/>
<path d="M124.895 33.6553L124.124 34.1858L122.986 32.5322L118.567 35.5723L118.036 34.8012L122.456 31.7611L121.321 30.1113L122.092 29.5808L124.895 33.6553Z" fill="white"/>
<path d="M132.235 49.5473L132.579 50.5948L128.624 49.6282L125.922 50.5147L125.63 49.6253L128.333 48.7389L130.947 45.6221L131.291 46.6696L129.449 48.8651L132.235 49.5473Z" fill="white"/>
<path d="M128.261 61.1722C128.207 60.7497 128.239 60.3418 128.357 59.9483C128.478 59.5544 128.669 59.1969 128.93 58.8757C129.191 58.5545 129.506 58.2883 129.875 58.0771C130.247 57.8655 130.656 57.7308 131.102 57.673C131.549 57.6151 131.977 57.6413 132.387 57.7514C132.801 57.8612 133.175 58.0381 133.509 58.2822C133.843 58.5262 134.118 58.8234 134.332 59.1737C134.55 59.5236 134.687 59.9098 134.741 60.3323C134.796 60.7577 134.763 61.1674 134.642 61.5612C134.524 61.9547 134.334 62.3121 134.073 62.6333C133.812 62.9545 133.496 63.2194 133.123 63.4279C132.754 63.6391 132.347 63.7736 131.901 63.8315C131.454 63.8893 131.024 63.8634 130.611 63.7536C130.201 63.6465 129.828 63.4708 129.494 63.2268C129.16 62.9827 128.884 62.6857 128.666 62.3358C128.452 61.9855 128.317 61.5976 128.261 61.1722ZM129.19 61.0519C129.228 61.3494 129.325 61.6197 129.481 61.8627C129.636 62.1057 129.833 62.3117 130.069 62.4807C130.309 62.6522 130.575 62.7751 130.866 62.8494C131.16 62.9262 131.465 62.9441 131.78 62.9032C132.096 62.8624 132.386 62.7673 132.651 62.618C132.916 62.4716 133.142 62.2851 133.327 62.0584C133.516 61.8343 133.653 61.5851 133.738 61.3108C133.827 61.0362 133.852 60.7501 133.813 60.4526C133.774 60.1551 133.677 59.8848 133.522 59.6418C133.366 59.3988 133.169 59.1915 132.929 59.0199C132.692 58.8509 132.426 58.728 132.132 58.6512C131.841 58.577 131.538 58.5604 131.223 58.6012C130.904 58.6425 130.612 58.7363 130.347 58.8826C130.085 59.0315 129.86 59.2181 129.671 59.4422C129.485 59.6689 129.348 59.9196 129.26 60.1942C129.175 60.4685 129.151 60.7544 129.19 61.0519Z" fill="white"/>
<path d="M128.72 72.3651C128.749 71.8619 128.898 71.4305 129.166 71.0707C129.433 70.7139 129.78 70.4444 130.206 70.2622C130.634 70.0833 131.101 70.0088 131.607 70.0387L135.273 70.2559L135.217 71.1902L131.552 70.9731C131.222 70.9536 130.916 70.9956 130.634 71.099C130.354 71.2057 130.125 71.3694 129.947 71.5903C129.771 71.8143 129.673 72.091 129.654 72.4204C129.634 72.7588 129.698 73.0481 129.846 73.2883C129.997 73.5286 130.205 73.7153 130.471 73.8482C130.739 73.9843 131.038 74.0621 131.368 74.0817L135.033 74.2988L134.978 75.2331L131.312 75.016C130.932 74.9935 130.579 74.914 130.254 74.7775C129.931 74.6412 129.651 74.4563 129.412 74.2228C129.173 73.9892 128.993 73.7156 128.87 73.4018C128.747 73.088 128.697 72.7424 128.72 72.3651Z" fill="white"/>
<path d="M125.13 89.8147C125.284 89.4046 125.506 89.052 125.796 88.757C126.088 88.4659 126.423 88.241 126.803 88.0823C127.185 87.9274 127.589 87.845 128.016 87.8352C128.441 87.8281 128.863 87.903 129.282 88.0599C129.723 88.2253 130.099 88.4561 130.411 88.7524C130.723 89.0488 130.964 89.3842 131.134 89.7589C131.308 90.1346 131.405 90.525 131.426 90.9302C131.446 91.3382 131.384 91.7346 131.239 92.1195C131.076 92.5549 130.818 92.9355 130.465 93.2614C130.112 93.5873 129.678 93.8233 129.162 93.9694L129.03 93.0261C129.359 92.9186 129.638 92.7543 129.869 92.533C130.098 92.3146 130.265 92.065 130.37 91.7841C130.473 91.5116 130.513 91.2321 130.493 90.9456C130.475 90.6601 130.401 90.3859 130.272 90.1229C130.146 89.861 129.97 89.6252 129.745 89.4156C129.52 89.2099 129.253 89.0485 128.941 88.9316C128.64 88.819 128.338 88.7651 128.035 88.77C127.731 88.7778 127.445 88.837 127.176 88.9476C126.909 89.0621 126.673 89.2205 126.469 89.4227C126.264 89.6278 126.109 89.8708 126.004 90.1517C125.926 90.3596 125.885 90.5716 125.88 90.7879C125.876 91.0042 125.905 91.217 125.968 91.4263C126.032 91.6394 126.128 91.8404 126.256 92.0293C126.384 92.2182 126.541 92.3892 126.727 92.5423L127.196 91.2908L127.971 91.5815L127.117 93.861C126.693 93.7087 126.325 93.4872 126.011 93.1965C125.696 92.9086 125.446 92.578 125.263 92.2048C125.081 91.8354 124.976 91.4451 124.947 91.034C124.919 90.6228 124.98 90.2164 125.13 89.8147Z" fill="white"/>
<path d="M121.667 97.8537L127.071 101.092L125.88 103.08C125.705 103.373 125.474 103.594 125.19 103.741C124.906 103.889 124.6 103.958 124.274 103.948C123.949 103.942 123.637 103.85 123.339 103.671C123.086 103.52 122.885 103.334 122.733 103.114C122.58 102.896 122.481 102.659 122.436 102.401C122.39 102.146 122.399 101.891 122.464 101.636L119.428 101.59L119.986 100.66L122.925 100.701L123.367 99.9633L121.186 98.6566L121.667 97.8537ZM124.17 100.444L123.511 101.545C123.418 101.699 123.373 101.862 123.375 102.035C123.375 102.21 123.417 102.373 123.501 102.525C123.585 102.676 123.708 102.801 123.87 102.898C124.032 102.995 124.2 103.045 124.373 103.047C124.549 103.051 124.713 103.011 124.865 102.927C125.017 102.848 125.14 102.73 125.232 102.576L125.892 101.476L124.17 100.444Z" fill="white"/>
<path d="M114.19 108.332C114.471 108.012 114.799 107.766 115.173 107.595C115.549 107.427 115.943 107.334 116.357 107.318C116.77 107.302 117.178 107.363 117.58 107.501C117.985 107.64 118.356 107.859 118.694 108.156C119.032 108.453 119.295 108.792 119.483 109.173C119.674 109.556 119.788 109.954 119.825 110.366C119.862 110.778 119.82 111.18 119.699 111.573C119.58 111.967 119.38 112.325 119.099 112.645C118.816 112.967 118.486 113.212 118.11 113.381C117.736 113.552 117.343 113.645 116.929 113.662C116.516 113.678 116.108 113.615 115.705 113.473C115.303 113.335 114.933 113.118 114.595 112.821C114.257 112.524 113.993 112.184 113.802 111.801C113.612 111.422 113.498 111.026 113.461 110.614C113.424 110.202 113.464 109.799 113.584 109.404C113.705 109.011 113.907 108.654 114.19 108.332ZM114.893 108.95C114.695 109.175 114.556 109.426 114.477 109.703C114.397 109.981 114.371 110.264 114.401 110.553C114.43 110.847 114.513 111.127 114.65 111.395C114.786 111.667 114.974 111.908 115.213 112.118C115.452 112.327 115.715 112.483 116.002 112.583C116.287 112.686 116.576 112.732 116.868 112.722C117.161 112.715 117.439 112.654 117.702 112.537C117.966 112.422 118.198 112.252 118.396 112.027C118.594 111.801 118.733 111.55 118.812 111.273C118.892 110.996 118.917 110.71 118.888 110.417C118.859 110.127 118.776 109.847 118.639 109.575C118.503 109.307 118.315 109.069 118.076 108.859C117.835 108.647 117.572 108.49 117.287 108.387C117.002 108.288 116.713 108.242 116.42 108.248C116.127 108.259 115.849 108.321 115.584 108.436C115.322 108.553 115.091 108.724 114.893 108.95Z" fill="white"/>
<path d="M107.06 115.489L112.147 119.54L111.379 120.121L107.65 117.147L109.502 121.541L108.824 122.054L105.095 119.081L106.944 123.478L106.176 124.059L103.651 118.069L104.509 117.419L107.877 120.102L106.21 116.132L107.06 115.489Z" fill="white"/>
<path d="M97.6679 121.76L100.62 127.325L99.7931 127.764L96.8411 122.198L97.6679 121.76Z" fill="white"/>
<path d="M91.8285 124.602L93.9378 130.538L92.9837 130.877L88.7144 127.504L90.2572 131.846L89.3752 132.16L87.2659 126.223L88.22 125.884L92.4893 129.258L90.9465 124.915L91.8285 124.602Z" fill="white"/>
<path d="M78.591 128.14C79.0238 128.073 79.4399 128.093 79.8391 128.202C80.2358 128.313 80.5964 128.496 80.921 128.749C81.243 129.006 81.5128 129.318 81.7304 129.685C81.945 130.053 82.0865 130.457 82.1548 130.899C82.2267 131.365 82.2099 131.806 82.1043 132.223C81.9988 132.64 81.8245 133.014 81.5813 133.346C81.3386 133.681 81.0458 133.957 80.7029 134.174C80.3571 134.392 79.9811 134.532 79.5749 134.595C79.1153 134.666 78.6571 134.627 78.2001 134.479C77.7432 134.331 77.3246 134.068 76.9443 133.69L77.7021 133.113C77.9568 133.347 78.237 133.51 78.5427 133.602C78.8454 133.695 79.145 133.718 79.4415 133.673C79.7291 133.628 79.9927 133.527 80.2323 133.368C80.4724 133.213 80.6755 133.014 80.8416 132.773C81.0081 132.535 81.1275 132.266 81.1996 131.967C81.2692 131.67 81.2785 131.358 81.2277 131.029C81.1787 130.712 81.0778 130.422 80.925 130.16C80.7693 129.899 80.5773 129.678 80.3491 129.498C80.1184 129.321 79.8649 129.193 79.5886 129.115C79.3094 129.036 79.0215 129.02 78.725 129.066C78.5057 129.1 78.3006 129.168 78.11 129.27C77.9194 129.373 77.7482 129.502 77.5964 129.659C77.4421 129.82 77.3139 130.002 77.2119 130.206C77.1099 130.41 77.0377 130.631 76.9954 130.868L78.3163 130.664L78.4427 131.482L76.0368 131.854C75.9621 131.41 75.9746 130.98 76.0742 130.564C76.1709 130.148 76.3369 129.769 76.5723 129.426C76.8051 129.086 77.0938 128.804 77.4383 128.577C77.7828 128.351 78.167 128.205 78.591 128.14Z" fill="white"/>
</svg>
