<svg width="41" height="42" viewBox="0 0 41 42" fill="none" xmlns="http://www.w3.org/2000/svg">
<path d="M16.5879 0.566528L20.2866 19.7236H20.9978L24.8861 0.566528H16.5879Z" fill="#F55118"/>
<path d="M3.35645 9.54258L19.6018 20.3482L20.1008 19.8414L9.17865 3.62976L3.35645 9.54258Z" fill="#F55118"/>
<path d="M0.202148 24.1032L19.488 21.1491L19.5155 20.4384L0.523436 15.8113L0.202148 24.1032Z" fill="#F55118"/>
<path d="M9.09208 37.9798L19.9965 21.8005L19.4928 21.2985L3.21484 32.1216L9.09208 37.9798Z" fill="#F55118"/>
<path d="M24.7083 41.1849L20.9679 22.036L20.2567 22.0376L16.4102 41.2029L24.7083 41.1849Z" fill="#F55118"/>
<path d="M32.0503 3.60071L21.1162 19.7598L21.619 20.2628L37.9169 9.4696L32.0503 3.60071Z" fill="#F55118"/>
<path d="M40.8231 16.5531L21.71 20.4726L21.7182 21.1838L40.9187 24.8507L40.8231 16.5531Z" fill="#F55118"/>
<path d="M37.9171 32.1579L21.6298 21.4156L21.1328 21.9244L32.1178 38.0934L37.9171 32.1579Z" fill="#F55118"/>
</svg>
